<svg width="22" height="26" viewBox="0 0 22 26" fill="none" xmlns="http://www.w3.org/2000/svg">
<path d="M22 18.9792C21.3991 20.312 21.1108 20.9066 20.3368 22.084C19.2571 23.729 17.7346 25.7749 15.8481 25.7934C14.1711 25.8087 13.7402 24.7033 11.4651 24.7148C9.19042 24.7269 8.71559 25.8125 7.03956 25.7973C5.15305 25.7801 3.7103 23.9316 2.62965 22.2879C-0.390256 17.6905 -0.706234 12.2955 1.15576 9.42775C2.47929 7.39043 4.568 6.19785 6.53223 6.19785C8.53209 6.19785 9.78891 7.29384 11.4413 7.29384C13.0452 7.29384 14.0219 6.19604 16.334 6.19604C18.0808 6.19604 19.9321 7.1485 21.2519 8.79076C16.9302 11.1589 17.633 17.3286 22 18.9792Z" fill="#777777"/>
<path d="M14.581 4.35751C15.4207 3.27963 16.0585 1.75814 15.8272 0.202393C14.4547 0.297227 12.8494 1.17029 11.9131 2.30785C11.0628 3.34039 10.361 4.87196 10.6335 6.36109C12.1319 6.40689 13.6817 5.51218 14.581 4.35751Z" fill="#777777"/>
</svg>
