<svg width="22" height="20" viewBox="0 0 22 20" fill="none" xmlns="http://www.w3.org/2000/svg">
<path d="M22 12.9792C21.3991 14.312 21.1108 14.9067 20.3368 16.084C19.2571 17.729 17.7346 19.7749 15.8481 19.7934C14.1711 19.8087 13.7402 18.7033 11.4651 18.7148C9.19042 18.7269 8.71559 19.8125 7.03956 19.7973C5.15305 19.7802 3.7103 17.9316 2.62965 16.288C-0.390256 11.6906 -0.706234 6.29548 1.15576 3.42777C2.47929 1.39044 4.568 0.197867 6.53223 0.197867C8.53209 0.197867 9.78891 1.29385 11.4413 1.29385C13.0452 1.29385 14.0219 0.19606 16.334 0.19606C18.0808 0.19606 19.9321 1.14852 21.2519 2.79078C16.9302 5.15887 17.633 11.3286 22 12.9792Z" fill="#777777"/>
</svg>
